<?xml version="1.0" encoding="utf-8"?>
<!-- Generator: Adobe Illustrator 26.2.1, SVG Export Plug-In . SVG Version: 6.00 Build 0)  -->
<svg version="1.1" id="Слой_1" xmlns="http://www.w3.org/2000/svg" xmlns:xlink="http://www.w3.org/1999/xlink" x="0px" y="0px"
	 viewBox="0 0 24 24" style="enable-background:new 0 0 24 24;" xml:space="preserve">
<style type="text/css">
	.st0{fill:#287D62;}
</style>
<g id="Iconly_x2F_Bold_x2F_Arrow---Right-Square">
	<g id="Arrow---Right-Square" transform="translate(1.999900, 2.000000)">
		<path class="st0" d="M14.1,0C17.6,0,20,2.3,20,5.7l0,0v8.7c0,3.4-2.4,5.7-5.9,5.7l0,0H5.9C2.4,20,0,17.7,0,14.3l0,0V5.7
			C0,2.3,2.4,0,5.9,0l0,0H14.1z M10.9,5.7c-0.3-0.3-0.8-0.3-1.1,0C9.5,6,9.5,6.5,9.8,6.8l0,0l2.5,2.5H5.9c-0.4,0-0.8,0.3-0.8,0.8
			c0,0.4,0.3,0.8,0.8,0.8l0,0h6.4l-2.5,2.5c-0.1,0.1-0.2,0.3-0.2,0.5c0,0.2,0.1,0.4,0.2,0.5c0.3,0.3,0.8,0.3,1.1,0l0,0l3.8-3.8
			c0.3-0.3,0.3-0.8,0-1.1l0,0L10.9,5.7z"/>
	</g>
</g>
</svg>
