<svg id="Слой_1" data-name="Слой 1" xmlns="http://www.w3.org/2000/svg" xmlns:xlink="http://www.w3.org/1999/xlink" viewBox="0 0 898.74 679.7">
  <defs>
    <style>
      .cls-1 {
        fill: none;
      }

      .cls-2 {
        fill: #008f49;
      }

      .cls-3 {
        clip-path: url(#clip-path);
      }
    </style>
    <clipPath id="clip-path">
      <polygon class="cls-1" points="201.56 492.1 336.64 677.8 898.74 492.1 201.56 492.1"/>
    </clipPath>
  </defs>
  <g id="Слой_2" data-name="Слой 2">
    <g>
      <path class="cls-2" d="M592.71,0,0,219H752.37Zm-8.18,15.81V198.53L451.11,65.12ZM184.07,207h-117l117-43.22Zm12,0V169.27L235.37,207Zm48.16-8.12-43.11-41.44,43.11-15.93Zm12,8.09V146.84L316.37,207Zm68.67-8.49-63.36-63.36,63.36-23.42Zm12,8.49V117.46L426.46,207Zm98-8.49-93-93,93-34.39Zm12,8.49V77.9L576,207ZM596.49,25.59,728.69,207H596.53Z"/>
      <polygon class="cls-2" points="538.75 235.1 538.75 464.89 479.73 464.89 479.73 277.45 454.81 464.89 418.21 464.89 393.29 277.45 393.29 464.89 334.27 464.89 334.27 235.1 424.23 235.1 436.51 327.44 448.79 235.1 538.75 235.1"/>
      <polygon class="cls-2" points="723.02 464.89 659.26 464.89 629.64 376.02 629.64 464.89 561.02 464.89 561.02 235.1 629.64 235.1 629.64 323.23 663.37 235.1 720.53 235.1 680.93 338.57 723.02 464.89"/>
      <polygon class="cls-2" points="265.72 283.34 265.72 326.95 311.82 326.95 311.82 373.04 265.72 373.04 265.72 416.65 314.67 416.65 314.67 464.89 195.86 464.89 195.86 235.1 314.67 235.1 314.67 283.34 265.72 283.34"/>
      <g>
        <polygon class="cls-2" points="201.56 492.1 336.64 677.8 898.74 492.1 201.56 492.1"/>
        <g class="cls-3">
          <g>
            <rect class="cls-2" x="317.06" y="491.74" width="131.9" height="57.74"/>
            <rect class="cls-2" x="177.79" y="491.74" width="131.9" height="57.74"/>
            <rect class="cls-2" x="242.89" y="556.85" width="131.9" height="57.74"/>
            <rect class="cls-2" x="172.65" y="621.96" width="131.9" height="57.74"/>
            <rect class="cls-2" x="311.92" y="621.96" width="123.56" height="57.74"/>
            <rect class="cls-2" x="442.85" y="621.96" width="123.56" height="57.74"/>
            <rect class="cls-2" x="382.16" y="556.85" width="131.9" height="57.74"/>
            <rect class="cls-2" x="521.42" y="556.85" width="116.55" height="57.74"/>
            <rect class="cls-2" x="645.33" y="556.85" width="116.55" height="57.74"/>
            <rect class="cls-2" x="456.33" y="491.74" width="131.9" height="57.74"/>
            <rect class="cls-2" x="595.59" y="491.74" width="147.22" height="57.74"/>
            <rect class="cls-2" x="750.18" y="491.74" width="131.9" height="57.74"/>
          </g>
        </g>
      </g>
    </g>
  </g>
</svg>
