<?xml version="1.0" encoding="utf-8"?>
<!-- Generator: Adobe Illustrator 26.2.1, SVG Export Plug-In . SVG Version: 6.00 Build 0)  -->
<svg version="1.1" id="Слой_1" xmlns="http://www.w3.org/2000/svg" xmlns:xlink="http://www.w3.org/1999/xlink" x="0px" y="0px"
	 viewBox="0 0 24 24" style="enable-background:new 0 0 24 24;" xml:space="preserve">
<style type="text/css">
	.st0{fill:#287D62;}
</style>
<g id="Iconly_x2F_Bold_x2F_Arrow---Right-Square">
	<g id="Arrow---Right-Square" transform="translate(1.999900, 2.000000)">
		<path class="st0" d="M20,14.2c0,3.5-2.3,5.9-5.7,5.9l0,0l-8.7,0c-3.4,0-5.7-2.4-5.7-5.9l0,0l0-8.2C0,2.5,2.3,0.1,5.7,0.1l0,0
			l8.6,0C17.7,0.1,20,2.5,20,6l0,0L20,14.2z M14.3,11c0.3-0.3,0.3-0.8,0-1.1c-0.3-0.3-0.8-0.3-1.1,0l0,0l-2.5,2.5l0-6.4
			c0-0.4-0.3-0.8-0.8-0.8C9.5,5.2,9.1,5.5,9.1,6l0,0l0,6.4L6.6,9.9C6.5,9.8,6.3,9.7,6.1,9.7S5.7,9.8,5.6,9.9c-0.3,0.3-0.3,0.8,0,1.1
			l0,0l3.8,3.8c0.3,0.3,0.8,0.3,1.1,0l0,0L14.3,11z"/>
	</g>
</g>
</svg>
