<?xml version="1.0" encoding="utf-8"?>
<!-- Generator: Adobe Illustrator 26.2.1, SVG Export Plug-In . SVG Version: 6.00 Build 0)  -->
<svg version="1.1" id="Слой_1" xmlns="http://www.w3.org/2000/svg" xmlns:xlink="http://www.w3.org/1999/xlink" x="0px" y="0px"
	 viewBox="0 0 24 24" style="enable-background:new 0 0 24 24;" xml:space="preserve">
<style type="text/css">
	.st0{fill:none;stroke:#FFFFFF;stroke-miterlimit:10;}
</style>
<g id="Iconly_x2F_Two-tone_x2F_Home">
	<g id="Home" transform="translate(2.500000, 2.000000)">
		<path class="st0" d="M6.7,18.8v-3.1c0-0.8,0.6-1.4,1.4-1.4H11c0.8,0,1.4,0.6,1.4,1.4l0,0v3.1c0,0.7,0.5,1.2,1.2,1.2h1.9
			c1.9,0,3.5-1.5,3.5-3.4l0,0V7.8c0-0.7-0.4-1.4-1-1.9l-6.6-5.2c-1.2-0.9-2.8-0.9-3.9,0L1,5.9C0.4,6.4,0,7.1,0,7.8v8.7
			C0,18.5,1.6,20,3.5,20h1.9C6.1,20,6.6,19.4,6.7,18.8L6.7,18.8"/>
	</g>
</g>
</svg>
