<?xml version="1.0" encoding="utf-8"?>
<!-- Generator: Adobe Illustrator 26.2.1, SVG Export Plug-In . SVG Version: 6.00 Build 0)  -->
<svg version="1.1" id="Слой_1" xmlns="http://www.w3.org/2000/svg" xmlns:xlink="http://www.w3.org/1999/xlink" x="0px" y="0px"
	 viewBox="0 0 20 20" style="enable-background:new 0 0 20 20;" xml:space="preserve">
<style type="text/css">
	.st0{fill-rule:evenodd;clip-rule:evenodd;fill:none;stroke:#FFFFFF;stroke-miterlimit:10;}
</style>
<g id="Iconly_x2F_Light-Outline_x2F_Message">
	<g id="Message" transform="translate(1.000000, 1.000000)">
		<path id="Combined-Shape" class="st0" d="M13.9,0.8H4.1c-2.5,0-4.3,2-4.3,4.8v6.9c0,1.4,0.5,2.7,1.4,3.6c0.8,0.8,1.8,1.2,2.9,1.2
			h9.8c0,0,0,0,0,0c1.1,0,2.2-0.4,2.9-1.2c0.9-0.9,1.4-2.2,1.4-3.6V5.6C18.2,2.8,16.4,0.8,13.9,0.8z M3.6,5.3l4.5,3.6
			c0.6,0.4,1.4,0.4,1.9,0l4.4-3.6"/>
	</g>
</g>
</svg>
